<?xml version="1.0" encoding="UTF-8"?>
<svg width="56px" height="56px" viewBox="0 0 56 56" version="1.1" xmlns="http://www.w3.org/2000/svg">
    <!-- Generator: Sketch 63.1 (92452) - https://sketch.com -->
    <title>Artboard</title>
    <desc>Created with Sketch.</desc>
    <g id="Artboard" stroke="none" stroke-width="1" fill="none" fill-rule="evenodd">
        <g id="logo" fill="#117ACA" fill-rule="nonzero">
            <path d="M19.9288291,0.2748379 C18.8563291,0.2748379 17.9875891,1.1435959 17.9875891,2.2148399 L17.9875891,15.8211029 L53.9288291,15.8211029 L37.5613291,0.2760959 L19.9288291,0.2748379" id="logo-ne"></path>
            <path d="M55.2438291,19.9373509 C55.2438291,18.8635899 54.3813291,17.9985889 53.3025891,17.9985889 L39.7000791,17.9985889 L39.7000791,53.9410829 L55.2375691,37.5660979 L55.2438291,19.9373509" id="logo-se"></path>
            <path d="M35.5788391,55.2423329 C36.6488391,55.2423329 37.5175791,54.3723329 37.5175791,53.2985929 L37.5175791,39.6973499 L1.5750791,39.6973499 L17.9450691,55.2398329 L35.5788391,55.2423329" id="logo-sw"></path>
            <path d="M0.2613391,35.5823399 C0.2613391,36.6548429 1.1300791,37.5285989 2.2050791,37.5285989 L15.8050791,37.5285989 L15.8050791,1.5836029 L0.2638391,17.9535939 L0.2613391,35.5823399" id="logo-nw"></path>
        </g>
    </g>
</svg>